<svg xmlns="http://www.w3.org/2000/svg" xmlns:xlink="http://www.w3.org/1999/xlink" width="500" zoomAndPan="magnify" viewBox="0 0 375 374.999991" height="500" preserveAspectRatio="xMidYMid meet" version="1.0"><defs><clipPath id="180f574245"><path d="M 19 16 L 193 16 L 193 213 L 19 213 Z M 19 16 " clip-rule="nonzero"/></clipPath><clipPath id="a2695deaac"><path d="M 9.863281 82.074219 L 166.246094 6.4375 L 229.566406 137.359375 L 73.1875 212.996094 Z M 9.863281 82.074219 " clip-rule="nonzero"/></clipPath><clipPath id="d0eaec2ddd"><path d="M 9.863281 82.074219 L 166.246094 6.4375 L 230.007812 138.269531 L 73.628906 213.90625 Z M 9.863281 82.074219 " clip-rule="nonzero"/></clipPath><clipPath id="6cece55258"><path d="M 9.863281 82.074219 L 166.246094 6.4375 L 254.195312 188.273438 L 97.816406 263.910156 Z M 9.863281 82.074219 " clip-rule="nonzero"/></clipPath><clipPath id="5934fe4475"><path d="M 102 156 L 218 156 L 218 233 L 102 233 Z M 102 156 " clip-rule="nonzero"/></clipPath><clipPath id="29ae285d96"><path d="M 102.523438 167.421875 L 356.8125 156.84375 L 365.164062 357.648438 L 110.875 368.226562 Z M 102.523438 167.421875 " clip-rule="nonzero"/></clipPath><clipPath id="1bbf8d84a8"><path d="M 66.394531 -1.976562 L 349.945312 -13.773438 L 365.390625 357.566406 L 81.839844 369.363281 Z M 66.394531 -1.976562 " clip-rule="nonzero"/></clipPath><clipPath id="dbb98f6511"><path d="M 107 193 L 311 193 L 311 364 L 107 364 Z M 107 193 " clip-rule="nonzero"/></clipPath><clipPath id="a8f7552c95"><path d="M 102.523438 167.421875 L 356.8125 156.84375 L 365.164062 357.648438 L 110.875 368.226562 Z M 102.523438 167.421875 " clip-rule="nonzero"/></clipPath><clipPath id="d00784105c"><path d="M 66.394531 -1.976562 L 349.945312 -13.773438 L 365.390625 357.566406 L 81.839844 369.363281 Z M 66.394531 -1.976562 " clip-rule="nonzero"/></clipPath><clipPath id="632c10f4b7"><path d="M 345 259 L 362 259 L 362 276 L 345 276 Z M 345 259 " clip-rule="nonzero"/></clipPath><clipPath id="5d888ac2db"><path d="M 102.523438 167.421875 L 356.8125 156.84375 L 365.164062 357.648438 L 110.875 368.226562 Z M 102.523438 167.421875 " clip-rule="nonzero"/></clipPath><clipPath id="92d21a0f04"><path d="M 66.394531 -1.976562 L 349.945312 -13.773438 L 365.390625 357.566406 L 81.839844 369.363281 Z M 66.394531 -1.976562 " clip-rule="nonzero"/></clipPath><clipPath id="365b21c7f7"><path d="M 317 284 L 334 284 L 334 301 L 317 301 Z M 317 284 " clip-rule="nonzero"/></clipPath><clipPath id="f318fd8150"><path d="M 102.523438 167.421875 L 356.8125 156.84375 L 365.164062 357.648438 L 110.875 368.226562 Z M 102.523438 167.421875 " clip-rule="nonzero"/></clipPath><clipPath id="76f04360df"><path d="M 66.394531 -1.976562 L 349.945312 -13.773438 L 365.390625 357.566406 L 81.839844 369.363281 Z M 66.394531 -1.976562 " clip-rule="nonzero"/></clipPath><clipPath id="44f535c373"><path d="M 311 228 L 342 228 L 342 259 L 311 259 Z M 311 228 " clip-rule="nonzero"/></clipPath><clipPath id="a2885ab06f"><path d="M 102.523438 167.421875 L 356.8125 156.84375 L 365.164062 357.648438 L 110.875 368.226562 Z M 102.523438 167.421875 " clip-rule="nonzero"/></clipPath><clipPath id="022e7ee096"><path d="M 66.394531 -1.976562 L 349.945312 -13.773438 L 365.390625 357.566406 L 81.839844 369.363281 Z M 66.394531 -1.976562 " clip-rule="nonzero"/></clipPath></defs><g clip-path="url(#180f574245)"><g clip-path="url(#a2695deaac)"><g clip-path="url(#d0eaec2ddd)"><g clip-path="url(#6cece55258)"><path fill="#000000" d="M 178.777344 32.429688 C 171.847656 18.105469 154.527344 12.105469 140.160156 19.054688 C 125.792969 26.003906 119.742188 43.304688 126.671875 57.632812 C 131.300781 67.203125 140.585938 72.9375 150.515625 73.699219 L 157.800781 88.765625 L 128.148438 127.148438 L 79.644531 126.566406 L 72.359375 111.5 C 77.929688 103.246094 79.195312 92.40625 74.566406 82.832031 C 67.636719 68.507812 50.316406 62.507812 35.949219 69.457031 C 21.582031 76.40625 15.53125 93.710938 22.460938 108.035156 C 27.089844 117.609375 36.375 123.34375 46.304688 124.101562 L 57.476562 147.195312 C 59.855469 152.117188 64.816406 155.261719 70.300781 155.335938 L 126.027344 155.996094 L 139.597656 184.050781 C 134.023438 192.304688 132.757812 203.144531 137.386719 212.71875 C 144.316406 227.042969 161.636719 233.042969 176.003906 226.09375 C 190.371094 219.144531 196.421875 201.839844 189.492188 187.515625 C 184.863281 177.941406 175.578125 172.207031 165.648438 171.449219 L 152.078125 143.394531 L 186.148438 99.285156 C 189.503906 94.953125 190.117188 89.113281 187.738281 84.191406 L 176.566406 61.097656 C 182.136719 52.839844 183.40625 42.003906 178.777344 32.429688 Z M 42.230469 82.445312 C 49.410156 78.976562 58.078125 81.976562 61.539062 89.132812 C 65 96.289062 61.972656 104.953125 54.796875 108.421875 C 47.617188 111.894531 38.949219 108.890625 35.488281 101.734375 C 32.027344 94.578125 35.054688 85.917969 42.230469 82.445312 Z M 169.722656 213.105469 C 162.542969 216.578125 153.882812 213.585938 150.414062 206.417969 C 146.945312 199.246094 149.980469 190.597656 157.15625 187.128906 C 164.335938 183.65625 173 186.644531 176.464844 193.816406 C 179.933594 200.984375 176.898438 209.632812 169.722656 213.105469 Z M 159.003906 58.019531 C 151.816406 61.496094 143.160156 58.488281 139.699219 51.332031 C 136.234375 44.175781 139.25 35.519531 146.441406 32.042969 C 153.632812 28.566406 162.289062 31.574219 165.75 38.730469 C 169.210938 45.886719 166.195312 54.542969 159.003906 58.019531 Z M 159.003906 58.019531 " fill-opacity="1" fill-rule="nonzero"/></g></g></g></g><g clip-path="url(#5934fe4475)"><g clip-path="url(#29ae285d96)"><g clip-path="url(#1bbf8d84a8)"><path fill="#000000" d="M 132.46875 187.753906 C 130.589844 188.546875 129.066406 190.007812 128.207031 191.855469 L 112.441406 225.671875 C 110.613281 229.59375 114.570312 233.707031 118.554688 232.03125 L 215.105469 191.453125 C 219.089844 189.777344 218.921875 184.074219 214.84375 182.636719 L 179.652344 170.234375 C 177.726562 169.554688 175.621094 169.617188 173.738281 170.40625 C 169.558594 172.164062 164.746094 170.199219 162.984375 166.015625 L 96.511719 7.851562 C 93.476562 0.636719 85.171875 -2.753906 77.957031 0.277344 C 70.738281 3.3125 67.351562 11.617188 70.382812 18.832031 L 136.855469 177 C 138.617188 181.179688 136.648438 185.996094 132.46875 187.753906 " fill-opacity="1" fill-rule="nonzero"/></g></g></g><g clip-path="url(#dbb98f6511)"><g clip-path="url(#a8f7552c95)"><g clip-path="url(#d00784105c)"><path fill="#000000" d="M 237.414062 198.625 C 234.34375 193.878906 228.3125 192.019531 223.105469 194.210938 L 114.929688 239.675781 C 109.722656 241.863281 106.828125 247.472656 108.066406 252.984375 C 108.066406 252.984375 121.523438 341.472656 119.519531 362.71875 C 127.839844 367.640625 157.765625 355.753906 157.765625 355.753906 C 157.765625 355.753906 148.925781 307.636719 140.988281 283.742188 C 153.382812 300.027344 170 351.769531 170 351.769531 L 179.652344 348.011719 C 179.652344 348.011719 171.824219 319.417969 164.03125 301.746094 C 177.191406 315.710938 188.867188 345.230469 188.867188 345.230469 L 220.722656 331.84375 C 220.722656 331.84375 203.425781 300.359375 205.128906 288.480469 C 210.949219 300.246094 232.335938 326.960938 232.335938 326.960938 C 232.335938 326.960938 250.578125 319.644531 260.191406 310.90625 C 251.179688 302.257812 214.570312 250.449219 213.890625 228.144531 C 231.351562 268.167969 273.464844 304.214844 273.464844 304.214844 C 273.464844 304.214844 301.601562 291.839844 310.386719 275.03125 C 259.375 247.285156 237.414062 198.625 237.414062 198.625 " fill-opacity="1" fill-rule="nonzero"/></g></g></g><g clip-path="url(#632c10f4b7)"><g clip-path="url(#5d888ac2db)"><g clip-path="url(#92d21a0f04)"><path fill="#000000" d="M 352.773438 259.214844 C 348.394531 259.394531 344.992188 263.09375 345.171875 267.472656 C 345.355469 271.851562 349.050781 275.253906 353.429688 275.070312 C 357.8125 274.890625 361.210938 271.191406 361.03125 266.8125 C 360.847656 262.433594 357.152344 259.03125 352.773438 259.214844 " fill-opacity="1" fill-rule="nonzero"/></g></g></g><g clip-path="url(#365b21c7f7)"><g clip-path="url(#f318fd8150)"><g clip-path="url(#76f04360df)"><path fill="#000000" d="M 324.90625 284.199219 C 320.527344 284.382812 317.125 288.078125 317.308594 292.457031 C 317.488281 296.835938 321.1875 300.238281 325.566406 300.058594 C 329.941406 299.875 333.34375 296.179688 333.160156 291.800781 C 332.980469 287.417969 329.28125 284.019531 324.90625 284.199219 " fill-opacity="1" fill-rule="nonzero"/></g></g></g><g clip-path="url(#44f535c373)"><g clip-path="url(#a2885ab06f)"><g clip-path="url(#022e7ee096)"><path fill="#000000" d="M 325.804688 228.988281 C 317.566406 229.332031 311.171875 236.289062 311.511719 244.527344 C 311.855469 252.761719 318.808594 259.164062 327.046875 258.820312 C 335.28125 258.476562 341.683594 251.523438 341.339844 243.285156 C 340.996094 235.046875 334.042969 228.648438 325.804688 228.988281 " fill-opacity="1" fill-rule="nonzero"/></g></g></g></svg>