<?xml version="1.0" standalone="no"?>
<!DOCTYPE svg PUBLIC "-//W3C//DTD SVG 20010904//EN"
 "http://www.w3.org/TR/2001/REC-SVG-20010904/DTD/svg10.dtd">
<svg version="1.0" xmlns="http://www.w3.org/2000/svg"
 width="700.000000pt" height="700.000000pt" viewBox="0 0 700.000000 700.000000"
 preserveAspectRatio="xMidYMid meet">
<metadata>
Created by potrace 1.14, written by Peter Selinger 2001-2017
</metadata>
<g transform="translate(0.000000,700.000000) scale(0.100000,-0.100000)"
fill="#000000" stroke="none">
<path d="M2732 6684 c-376 -98 -538 -516 -323 -832 44 -65 116 -129 185 -164
60 -31 145 -58 181 -58 31 0 33 -4 100 -141 61 -127 67 -144 55 -163 -10 -16
-153 -203 -222 -291 -5 -5 -29 -38 -56 -71 -26 -34 -67 -88 -92 -120 -25 -32
-69 -90 -99 -128 -29 -39 -57 -75 -61 -79 -7 -8 -214 -9 -693 -3 -120 2 -219
5 -221 7 -2 2 -33 66 -69 141 l-66 137 29 54 c105 192 76 435 -71 600 -61 68
-113 106 -196 141 -74 31 -108 38 -198 40 -93 3 -144 -8 -244 -55 -224 -104
-346 -358 -290 -604 17 -76 84 -196 139 -251 86 -85 174 -129 320 -158 22 -5
40 -36 130 -222 58 -120 117 -235 132 -256 32 -44 89 -82 145 -97 36 -10 414
-18 906 -20 l198 -1 106 -217 c64 -131 106 -230 106 -249 0 -43 -38 -101 -82
-123 -64 -33 -72 -46 -179 -276 -217 -466 -214 -458 -208 -491 13 -65 79 -86
157 -51 56 25 162 70 359 152 102 42 209 87 238 101 29 13 58 24 65 24 7 0 17
4 23 9 5 5 43 23 84 39 41 17 91 37 110 45 19 8 40 16 45 17 6 1 21 8 35 16
14 7 95 42 180 78 573 239 636 267 658 291 26 30 28 55 7 95 -15 30 -36 39
-255 116 -189 66 -405 142 -430 152 -27 10 -94 9 -152 -3 -52 -11 -104 2 -135
33 -14 14 -75 127 -135 250 l-108 224 54 71 c29 40 89 117 132 173 44 56 90
116 104 134 75 98 323 418 336 434 34 40 64 121 64 172 0 66 -8 88 -129 337
-56 114 -101 212 -101 217 0 5 9 24 20 43 59 100 84 263 56 377 -32 136 -138
280 -251 344 -115 64 -279 89 -393 60z m246 -289 c94 -51 149 -154 139 -258
-6 -64 -16 -90 -54 -142 -42 -58 -123 -98 -199 -101 -166 -6 -287 116 -280
281 9 194 223 313 394 220z m-1953 -938 c66 -33 101 -72 129 -140 39 -97 17
-208 -57 -285 -94 -98 -255 -108 -361 -21 -61 51 -86 99 -100 194 -5 32 19
119 43 158 69 112 227 155 346 94z"/>
<path d="M3970 3294 c-124 -52 -234 -99 -245 -104 -20 -9 -799 -337 -1320
-555 -154 -64 -295 -128 -313 -142 -37 -28 -67 -82 -76 -135 -3 -20 7 -125 23
-235 16 -109 32 -218 35 -243 3 -25 8 -54 10 -65 2 -11 7 -47 11 -80 4 -32 8
-66 10 -75 1 -8 6 -42 9 -75 4 -33 9 -71 11 -85 12 -82 15 -111 20 -160 4 -30
8 -66 10 -80 2 -14 6 -50 10 -80 3 -30 10 -89 15 -130 5 -41 12 -102 15 -135
3 -33 8 -87 11 -120 18 -189 27 -337 28 -454 1 -132 -1 -129 106 -130 79 -1
212 19 267 40 15 6 30 10 33 10 26 -4 291 90 297 105 13 35 -174 888 -263
1197 -19 66 -33 121 -31 123 6 6 114 -187 157 -281 50 -106 151 -348 186 -443
61 -164 115 -315 150 -414 20 -60 40 -108 44 -108 5 0 45 14 90 31 93 36 89
19 44 169 -82 273 -156 493 -223 659 -27 67 -12 57 58 -38 102 -137 254 -415
347 -633 16 -38 31 -68 35 -68 5 0 424 174 504 209 11 5 34 15 52 23 l32 14
-53 105 c-148 294 -236 540 -236 655 l1 49 23 -45 c33 -64 161 -251 284 -414
191 -254 193 -257 216 -251 93 26 477 247 491 283 2 7 -29 53 -69 102 -230
276 -573 825 -680 1090 -15 36 -31 74 -36 85 -26 56 -75 253 -66 262 1 2 28
-48 58 -110 49 -98 196 -343 228 -379 6 -7 34 -44 61 -83 162 -225 383 -473
636 -715 141 -135 115 -126 214 -76 147 76 310 182 398 260 89 80 201 212 201
238 0 3 -26 21 -57 39 -377 212 -763 568 -1039 959 -117 164 -157 230 -246
400 -45 85 -107 126 -195 128 -52 1 -80 -8 -283 -94z"/>
<path d="M6040 2722 c-14 -2 -29 -8 -34 -13 -6 -5 -18 -9 -27 -9 -9 0 -39 -20
-67 -45 -149 -134 -120 -364 58 -457 62 -32 186 -33 245 -1 89 47 144 128 152
225 7 75 -10 133 -56 194 -60 80 -166 121 -271 106z"/>
<path d="M6516 2141 c-65 -43 -88 -117 -57 -186 60 -135 254 -107 276 40 8 51
-14 106 -56 137 -38 28 -126 33 -163 9z"/>
<path d="M6045 1690 c-69 -15 -113 -62 -119 -128 -12 -116 111 -199 214 -143
41 21 80 83 80 126 0 87 -92 163 -175 145z"/>
</g>
</svg>
